<svg width="48" height="48" viewBox="0 0 48 48" fill="none" xmlns="http://www.w3.org/2000/svg">
<path d="M27.3186 28.9601C27.7339 29.3745 27.7339 30.047 27.3186 30.4625C27.1115 30.6696 26.8396 30.7738 26.5677 30.7738C26.2958 30.7738 26.0239 30.6696 25.8168 30.4625L19.5428 24.0207L25.8168 17.579C26.231 17.1646 26.9033 17.1646 27.3186 17.579C27.7339 17.9933 27.7339 18.6669 27.3186 19.0813L23.4769 22.9243H43.9379C44.5242 22.9243 45 23.4002 45 23.9867C45 24.5732 44.5242 25.0492 43.9379 25.0492H23.411L27.3186 28.9601ZM13.1253 7H32.2438C33.4174 7 34.3691 7.95091 34.3691 9.12493V18.6871H32.23V10.4211C32.23 9.71142 31.6543 9.13556 30.9448 9.13556H14.4583C13.7477 9.13556 13.1731 9.71142 13.1731 10.4211L13.1391 37.5905C13.1391 38.3003 13.7138 38.8761 14.4243 38.8761H30.9437C31.6532 38.8761 32.2289 38.3003 32.2289 37.5905V29.2778L34.368 29.281V38.8751C34.368 40.0491 33.4164 41 32.2427 41H13.1243C11.9506 41 11 40.0491 11 38.8751V9.126C11.0011 7.95197 11.9517 7.00106 13.1243 7.00106L13.1253 7Z" fill="white"/>
</svg>
